<svg id="Ebene_1" data-name="Ebene 1" xmlns="http://www.w3.org/2000/svg" viewBox="0 0 694.41 128.14"><defs><style>.cls-1{fill:#2b84b7;fill-rule:evenodd;}</style></defs><title>GoEuro-Logo</title><path class="cls-1" d="M260.68,233.57c-18.45,0-34.25,6.79-45.68,19.65C204.5,265,198.71,280.9,198.71,297.9c0,13.19,4.7,25.23,13.23,33.88,9.4,9.54,22.92,14.58,39.1,14.58,18.38,0,34-6.82,45.17-19.73C306.4,314.87,312,299,312,281.87c0-13.26-4.52-25.27-12.73-33.8C290.16,238.58,276.81,233.57,260.68,233.57Zm-8.78,83.91c-12.32,0-20.59-8.82-20.59-21.94,0-18.65,12.09-33.25,27.51-33.25,12.42,0,20.76,8.82,20.76,21.95C279.58,302.88,267.43,317.48,251.9,317.48Z" transform="translate(-73.95 -233.57)"/><path class="cls-1" d="M606.54,234.66l-30.74.27c-11.34,0-17.92,5.34-20.11,16.31l-16.55,78.33c-1,4.77-.39,8.73,1.8,11.45s5.58,4,10,4h4.56c9.24,0,14.15-4.58,16.4-15.31L576,310.46l0.08-.39h0.4L585,310h0.25l0.15,0.2L606.22,338c4.3,5.66,9.84,8.53,16.48,8.53,7.82,0,15.7-3.92,20.93-6.53-1.41-1.91-6.82-9.24-12.15-16.56-12.61-17.33-12.51-17.69-12.39-18.07l0.07-.24,0.25-.1a41.84,41.84,0,0,0,27.47-36.87c0.62-9.71-1.69-17.43-6.86-22.94C633.45,238.21,622.18,234.66,606.54,234.66Zm7.84,38.55c-1.23,9.21-7.46,13.88-18.49,13.88H580.41l0.13-.6,5.57-26.66,0.08-.39h0.39l14.81-.44h0c5.14,0,8.68,1.2,10.84,3.67S615,268.48,614.38,273.21Z" transform="translate(-73.95 -233.57)"/><path class="cls-1" d="M755.62,248.06c-9.12-9.48-22.47-14.49-38.6-14.49-18.45,0-34.25,6.79-45.68,19.65C660.84,265,655.05,280.9,655.05,297.9c0,13.28,4.52,25.31,12.73,33.89,9.13,9.54,22.48,14.58,38.6,14.58,18.44,0,34.23-6.82,45.67-19.73,10.51-11.86,16.29-27.76,16.29-44.77C768.35,268.6,763.83,256.6,755.62,248.06Zm-47.38,69.42c-12.32,0-20.59-8.82-20.59-21.94,0-18.65,12.09-33.25,27.51-33.25,12.42,0,20.76,8.82,20.76,21.95C735.93,302.88,723.77,317.48,708.24,317.48Z" transform="translate(-73.95 -233.57)"/><path class="cls-1" d="M523.3,235.81c-8.55,0-15.73,7.42-18.28,18.89l-9.55,44c-2.61,12.87-8.51,19.13-18,19.13-5.85,0-10.12-1.61-12.68-4.79-3-3.76-3.71-9.74-2-17.77l9-42.49c1.34-6.53.86-11.11-1.48-14-2-2.5-5.52-3.72-10.65-3.72h-1.9c-9.94,0-16.28,5.18-18.33,15l-9.29,42.89c-3.72,17.3-1.92,30.65,5.37,39.67s20.28,13.75,38.38,13.75c14.44,0,26.26-3.81,35.13-11.32s15.26-19.31,18.58-34.71l13.84-64.44Z" transform="translate(-73.95 -233.57)"/><path class="cls-1" d="M353.25,235.08c-12.22,0-19,5.85-21.41,18.4L314.37,341c-1.66,8-1.17,12,1.92,15.8,2.56,3.14,8.22,4.95,15.53,4.95H389.1c10.65,0,16.92-1.37,19.73-4.32,4.5-4.71,5.42-8.65,5.42-13.11,0-6.07-4.56-9.28-13.2-9.28l-53.56.05s2-9.66,3.05-14.7c1.72-8,4.66-10.1,10.88-10.1l29.93,0c8.19,0,10.45-1.67,12.22-3.52,2.49-2.76,4-7.34,4-12.24,0-5.48-4.36-8.63-11.95-8.63H357l0.13-.61c0-.12,2.62-12.06,2.94-13.45,1.33-5.83,3.33-9.72,8.78-9.72h39.58c9.49,0,15-3.33,17.34-10.49a108.36,108.36,0,0,0,3.78-16.49Z" transform="translate(-73.95 -233.57)"/><path class="cls-1" d="M139.07,233.72a64.61,64.61,0,0,0-46.44,20.12,66.36,66.36,0,0,0-18.68,45.46c0,14.09,4.74,26,13.71,34.46,8.78,8.28,20.9,12.65,35,12.65,12.23,0,21.5-3.92,28.33-12l0.88-1v1.36c0,7.3,4.26,11,12.6,11A42,42,0,0,0,176,343.91l9.9-46.56c1.15-5.48.76-9.3-1.19-11.7-1.67-2.06-4.49-3.06-8.62-3.06H144.84c-6.1,0-8.58,1.19-10.8,3.24-3,3-4.23,9.48-4.23,12.29,0,5.11,4.34,8.28,11.32,8.28h13l-0.23.66c-2.12,6.17-4.31,8.25-7.42,10.7a22.9,22.9,0,0,1-14,4.33A25.6,25.6,0,0,1,114,314.68a24.5,24.5,0,0,1-6.73-17.91,39.83,39.83,0,0,1,9.06-25.16c6.06-7.25,14.22-11.31,23-11.46v-0.06h30.52c12.39,0,15.82-5.4,17.43-10.11A97.24,97.24,0,0,0,191,233.71h-52Z" transform="translate(-73.95 -233.57)"/></svg>